<svg xmlns="http://www.w3.org/2000/svg" viewBox="0 0 414 233" width="414" height="233">
	<defs>
		<clipPath clipPathUnits="userSpaceOnUse" id="cp1">
			<path d="M-10.23 238.36L418.72 238.36L418.72 -7.32L-10.23 -7.32L-10.23 238.36Z" />
		</clipPath>
		<linearGradient id="grd1" gradientUnits="userSpaceOnUse"  x1="357.022" y1="-59.007" x2="19.928" y2="345.33">
			<stop offset="0" stop-color="#000004"  />
			<stop offset="0.486" stop-color="#000004"  />
			<stop offset="1" stop-color="#3f186d"  />
		</linearGradient>
		<clipPath clipPathUnits="userSpaceOnUse" id="cp2">
			<path d="M75.59 95.15L333.77 95.15L333.77 161.57L75.59 161.57L75.59 95.15Z" />
		</clipPath>
	</defs>
	<style>
		tspan { white-space:pre }
		.shp0 { fill: url(#grd1) } 
		.shp1 { fill: #ffffff } 
	</style>
	<g id="g841">
		<g id="g843">
			<g id="Clip-Path: g845" clip-path="url(#cp1)">
				<g id="g845">
					<g id="g851">
						<g id="g853">
							<path id="path863" class="shp0" d="M-10.23 255.82L418.72 255.82L418.72 -7.32L-10.23 -7.32L-10.23 255.82Z" />
						</g>
					</g>
				</g>
			</g>
		</g>
		<g id="g865">
			<g id="Clip-Path: g867" clip-path="url(#cp2)">
				<g id="g867">
					<g id="g873">
						<path id="path875" class="shp1" d="M101.56 137.41C101.56 140.76 98.91 142.57 96.4 142.57C93.34 142.57 91.36 140.35 91.36 136.91L91.36 129.57L89.36 129.57L89.36 136.91C89.36 141.41 92.15 144.31 96.46 144.31C98.26 144.31 100.4 143.69 101.62 142.01L101.72 144.05L103.6 144.05L103.6 129.57L101.56 129.57L101.56 137.41Z" />
					</g>
					<path id="path877" class="shp1" d="M107.73 144.05L109.73 144.05L109.73 123L107.73 123L107.73 144.05Z" />
					<g id="g879">
						<path id="path881" class="shp1" d="M122.9 141.98C122.33 142.36 121.69 142.54 120.94 142.54C118.63 142.54 117.08 140.69 117.08 137.93L117.08 131.37L123.51 131.37L123.51 129.6L117.08 129.6L117.08 123L115.08 123L115.08 129.6L112 129.6L112 131.37L115.08 131.37L115.08 137.93C115.08 141.77 117.41 144.34 120.88 144.34C121.92 144.34 122.9 144.09 123.72 143.6L123.98 143.45L123.23 141.77L122.9 141.98Z" />
					</g>
					<g id="g883">
						<path id="path885" class="shp1" d="M132.88 129.34C130.78 129.34 129.05 130.11 128.02 131.44L127.94 129.6L126.06 129.6L126.06 144.05L128.07 144.05L128.07 136.07C128.07 133.25 130.06 131.2 132.79 131.2C133.78 131.2 134.79 131.5 135.73 132.08L136.03 132.27L136.93 130.6L136.66 130.43C135.5 129.73 134.16 129.34 132.88 129.34Z" />
					</g>
					<g id="g887">
						<path id="path889" fill-rule="evenodd" class="shp1" d="M152.06 144.05L150.21 144.05L150.06 141.9C148.86 143.43 146.64 144.29 143.78 144.29C139.86 144.29 137.52 142.55 137.52 139.65C137.52 137 139.79 135.25 143.31 135.18L149.98 135.18C149.89 132.65 147.96 131.14 144.77 131.14C142.59 131.14 141.09 131.73 140.18 132.96L139.99 133.21L138.6 132.26L138.8 131.98C140.06 130.18 142.03 129.31 144.83 129.31C149.11 129.31 151.99 131.75 151.99 135.37L151.99 141.68L152.06 144.05ZM143.34 136.96C141.03 137.01 139.52 138.07 139.52 139.65C139.52 141.88 142.11 142.48 143.63 142.48C148.32 142.48 149.98 140.09 149.98 138.05L149.98 136.96L143.34 136.96Z" />
					</g>
					<g id="g891">
						<path id="path893" fill-rule="evenodd" class="shp1" d="M191.16 133.27C191.16 126.97 196.02 122.58 202.62 122.58C209.13 122.58 214 126.97 214 133.27C214 139.62 209.13 144.05 202.62 144.05C196.02 144.05 191.16 139.62 191.16 133.27ZM206.57 133.27C206.57 130.88 204.92 129.19 202.62 129.19C200.28 129.19 198.58 130.88 198.58 133.27C198.58 135.71 200.28 137.44 202.62 137.44C204.92 137.44 206.57 135.71 206.57 133.27Z" />
					</g>
					<g id="g895">
						<path id="path897" fill-rule="evenodd" class="shp1" d="M234.45 135.71C235.14 138.97 240.22 139.1 241.7 136.62L247.52 138.88C245.7 142.7 242.22 144.09 238.18 144.09C231.84 144.09 226.89 139.92 226.89 133.19C226.94 127.89 230.58 122.63 238.05 122.63C244.09 122.63 247.65 125.97 248.65 130.84C249 132.45 248.91 134.14 248.65 135.71L234.45 135.71ZM234.36 130.8L241.74 130.8C240.79 127.36 235.58 127.36 234.36 130.8Z" />
					</g>
					<g id="g899">
						<path id="path901" class="shp1" d="M312.14 129.8C312.14 127.62 306.32 127.62 306.32 129.67C306.32 130.58 308.32 130.75 310.01 130.71C315.01 130.71 320.17 132.01 320 137.53C319.87 142.27 314.48 144.18 309.1 144.18C303.8 144.18 298.59 142.05 298.55 136.66L305.97 136.66C305.97 139.31 312.49 139.18 312.44 137.23C312.44 136.18 310.62 136.05 308.36 135.88C304.28 135.53 298.68 135.14 298.81 129.75C298.81 124.28 304.76 122.58 309.1 122.58C313.53 122.58 319.35 123.71 319.35 129.8L312.14 129.8Z" />
					</g>
					<g id="g903">
						<path id="path905" class="shp1" d="M249.35 129.61L249.35 123.88L252.64 123.88L252.64 120.09L251.57 120.09L251.56 117.51L256.65 117.51L256.65 115.37L259.85 115.37L259.85 123.88L264.37 123.88L264.37 125.94L263.16 125.94L263.16 129.61L259.85 129.61L259.85 135.43C259.76 138.68 263.43 138.3 265.41 137.25L267.48 142.52C265.29 143.95 263.14 144.29 261.66 144.29C255.8 144.25 252.64 141.17 252.64 135.43L252.64 132.07L256.85 132.08L256.85 130.46L252.64 130.45L252.64 129.61L249.35 129.61Z" />
					</g>
					<g id="g907">
						<path id="path909" fill-rule="evenodd" class="shp1" d="M298.15 139.13L298.15 143.86L284.36 143.86L284.36 141.64L284.34 141.22C283.13 143.22 280.78 144.05 278.26 144.01C274.18 144.01 269.71 142.14 269.71 136.84C269.71 131.62 274.92 130.32 279.35 130.32L283 130.32C282.78 127.54 277.39 127.62 274.35 130.06L270.97 126.02C276.05 120.28 290.73 121.37 290.73 130.54L290.73 138.57L290.76 139.13L298.15 139.13ZM283.17 135.32L279.35 135.32C276.53 135.32 276.53 138.23 279.48 138.23C281.17 138.23 283.17 137.23 283.17 135.32Z" />
					</g>
					<g id="g911">
						<path id="path913" class="shp1" d="M226.04 114.25L226.04 112.37L223.95 112.37L223.95 113.33L216.52 113.33L216.52 115.94L214.12 115.94L214.12 118.98L216.52 118.98L216.52 143.7L223.98 143.7L223.98 123.2L222.08 123.2L222.08 121.79L224.71 121.77L224.71 118.48L223.98 118.48L223.98 114.25L226.04 114.25Z" />
					</g>
					<g id="g915">
						<path id="path917" class="shp1" d="M185.68 114.95L185.68 122.87L180.82 122.87L180.82 143.7L188.25 143.7L188.25 125.37L186.6 125.37L186.6 123.94L188.25 123.94L188.25 122.88L193.11 122.88L193.11 114.95L185.68 114.95Z" />
					</g>
					<g id="g919">
						<path id="path921" class="shp1" d="M180.42 115.27L172.11 115.27L165.65 129.12L168.12 129.12L165.03 135.87L161.83 128.9L159.35 128.91L153 115.27L144.52 115.27L151.52 129.12L154.03 129.12L161.99 144.26L168.02 144.26L176.08 128.83L173.57 128.83L180.42 115.27Z" />
					</g>
				</g>
			</g>
		</g>
	</g>
</svg>