<?xml version="1.0" encoding="UTF-8" standalone="no"?>
<svg
   xmlns:dc="http://purl.org/dc/elements/1.1/"
   xmlns:cc="http://creativecommons.org/ns#"
   xmlns:rdf="http://www.w3.org/1999/02/22-rdf-syntax-ns#"
   xmlns:svg="http://www.w3.org/2000/svg"
   xmlns="http://www.w3.org/2000/svg"
   xmlns:sodipodi="http://sodipodi.sourceforge.net/DTD/sodipodi-0.dtd"
   xmlns:inkscape="http://www.inkscape.org/namespaces/inkscape"
   inkscape:version="1.0 (4035a4fb49, 2020-05-01)"
   sodipodi:docname="logogradiente.svg"
   viewBox="0 0 1920 1080"
   height="1080"
   width="1920"
   xml:space="preserve"
   id="svg833"
   version="1.1"><metadata
     id="metadata839"><rdf:RDF><cc:Work
         rdf:about=""><dc:format>image/svg+xml</dc:format><dc:type
           rdf:resource="http://purl.org/dc/dcmitype/StillImage" /><dc:title></dc:title></cc:Work></rdf:RDF></metadata><defs
     id="defs837"><clipPath
       id="clipPath849"
       clipPathUnits="userSpaceOnUse"><path
         id="path847"
         d="M 0.073,0 H 1913.034 V 491.856 H 0.073 Z" /></clipPath><linearGradient
       id="linearGradient861"
       spreadMethod="pad"
       gradientTransform="matrix(-1502.5166,-755.77747,-755.77747,1502.5166,1637.4769,588.46075)"
       gradientUnits="userSpaceOnUse"
       y2="0"
       x2="1"
       y1="0"
       x1="0"><stop
         id="stop855"
         offset="0"
         style="stop-opacity:1;stop-color:#000004" /><stop
         id="stop857"
         offset="0.48556231"
         style="stop-opacity:1;stop-color:#000004" /><stop
         id="stop859"
         offset="1"
         style="stop-opacity:1;stop-color:#3f186d" /></linearGradient><clipPath
       id="clipPath871"
       clipPathUnits="userSpaceOnUse"><path
         id="path869"
         d="M 0,491.856 H 1913.034 V 0 H 0 Z" /></clipPath></defs><sodipodi:namedview
     inkscape:current-layer="g841"
     inkscape:window-maximized="1"
     inkscape:window-y="-9"
     inkscape:window-x="-9"
     inkscape:cy="327.90398"
     inkscape:cx="1275.2561"
     inkscape:zoom="0.44183832"
     showgrid="false"
     id="namedview835"
     inkscape:window-height="1051"
     inkscape:window-width="1920"
     inkscape:pageshadow="2"
     inkscape:pageopacity="0"
     guidetolerance="10"
     gridtolerance="10"
     objecttolerance="10"
     borderopacity="1"
     bordercolor="#666666"
     pagecolor="#ffffff" /><g
     transform="matrix(1.3333333,0,0,-1.3333333,0,655.808)"
     inkscape:label="ultravioletas_logo"
     inkscape:groupmode="layer"
     id="g841"><g
       transform="matrix(0.77993881,0,0,1.736495,-35.63046,-336.78768)"
       id="g843"><g
         clip-path="url(#clipPath849)"
         id="g845"><g
           transform="matrix(1,0,0,1.0710395,0,-34.941178)"
           id="g851"><g
             id="g853"><path
               id="path863"
               style="fill:url(#linearGradient861);stroke:none"
               d="M 0.073,0 H 1913.034 V 491.856 H 0.073 Z" /></g></g></g></g><g
       transform="matrix(0.46942948,0,0,0.46942948,262.91389,-69.817292)"
       id="g865"><g
         clip-path="url(#clipPath871)"
         id="g867"><g
           transform="translate(192.4648,178.9188)"
           id="g873"><path
             id="path875"
             style="fill:#ffffff;fill-opacity:1;fill-rule:nonzero;stroke:none"
             d="m 0,0 c 0,-24.826 -19.692,-38.221 -38.221,-38.221 -22.694,0 -37.358,16.44 -37.358,41.882 V 58.042 H -90.448 V 3.661 c 0,-33.297 20.67,-54.811 52.658,-54.811 13.305,0 29.196,4.643 38.231,17.077 L 1.197,-49.212 H 15.083 V 58.042 H 0 Z" /></g><path
           id="path877"
           style="fill:#ffffff;fill-opacity:1;fill-rule:nonzero;stroke:none"
           d="m 238.123,129.707 h 14.869 V 285.63 h -14.869 z" /><g
           transform="translate(350.5849,145.0331)"
           id="g879"><path
             id="path881"
             style="fill:#ffffff;fill-opacity:1;fill-rule:nonzero;stroke:none"
             d="m 0,0 c -4.249,-2.771 -9.019,-4.118 -14.582,-4.118 -17.064,0 -28.528,13.714 -28.528,34.127 V 78.566 H 4.482 V 91.713 H -43.11 v 48.884 H -57.979 V 91.713 H -80.806 V 78.566 h 22.827 V 30.009 c 0,-28.405 17.267,-47.488 42.967,-47.488 7.702,0 14.99,1.907 21.077,5.515 l 1.898,1.125 -5.524,12.43 z" /></g><g
           transform="translate(424.5136,238.6825)"
           id="g883"><path
             id="path885"
             style="fill:#ffffff;fill-opacity:1;fill-rule:nonzero;stroke:none"
             d="m 0,0 c -15.527,0 -28.405,-5.683 -36.006,-15.548 l -0.598,13.611 h -13.9 v -107.039 h 14.868 v 59.118 c 0,20.899 14.715,36.067 34.99,36.067 7.313,0 14.831,-2.255 21.739,-6.521 l 2.236,-1.38 6.676,12.349 -2.008,1.227 C 19.433,-2.883 9.491,0 0,0" /></g><g
           transform="translate(551.2451,182.2518)"
           id="g887"><path
             id="path889"
             style="fill:#ffffff;fill-opacity:1;fill-rule:nonzero;stroke:none"
             d="m 0,0 v -8.07 c 0,-15.148 -12.322,-32.837 -47.05,-32.837 -11.316,0 -30.468,4.42 -30.468,20.992 0,11.687 11.138,19.505 28.314,19.915 z m 14.868,-34.989 v 46.73 c 0,26.86 -21.334,44.905 -53.088,44.905 -20.716,0 -35.328,-6.474 -44.671,-19.792 l -1.436,-2.047 10.273,-7.083 1.428,1.917 c 6.735,9.037 17.847,13.43 33.974,13.43 23.619,0 37.949,-11.154 38.627,-29.925 h -49.44 c -26.074,-0.483 -42.921,-13.46 -42.921,-33.061 0,-21.511 17.35,-34.354 46.413,-34.354 21.171,0 37.622,6.333 46.524,17.635 L 1.676,-52.545 H 15.37 Z" /></g><g
           transform="translate(970.5336,209.537)"
           id="g891"><path
             id="path893"
             style="fill:#ffffff;fill-opacity:1;fill-rule:nonzero;stroke:none"
             d="m 0,0 c 0,17.696 -12.227,30.245 -29.28,30.245 -17.376,0 -29.925,-12.549 -29.925,-30.245 0,-18.02 12.549,-30.89 29.925,-30.89 C -12.227,-30.89 0,-18.02 0,0 m -114.226,0 c 0,46.656 36.038,79.154 84.946,79.154 48.265,0 84.303,-32.498 84.303,-79.154 0,-46.979 -36.038,-79.799 -84.303,-79.799 -48.908,0 -84.946,32.82 -84.946,79.799" /></g><g
           transform="translate(1176.4481,227.8778)"
           id="g895"><path
             id="path897"
             style="fill:#ffffff;fill-opacity:1;fill-rule:nonzero;stroke:none"
             d="M 0,0 H 54.7 C 47.621,25.419 9.01,25.419 0,0 m 0.644,-36.36 c 5.148,-24.133 42.794,-25.098 53.735,-6.756 L 97.495,-59.849 C 83.98,-88.163 58.239,-98.46 28.315,-98.46 c -46.977,0 -83.659,30.89 -83.659,80.763 0.322,39.255 27.351,78.188 82.694,78.188 44.725,0 71.111,-24.775 78.511,-60.813 2.575,-11.906 1.931,-24.454 0,-36.038 z" /></g><g
           transform="translate(1752.7469,235.2782)"
           id="g899"><path
             id="path901"
             style="fill:#ffffff;fill-opacity:1;fill-rule:nonzero;stroke:none"
             d="m 0,0 c 0,16.088 -43.117,16.088 -43.117,0.966 0,-6.758 14.801,-8.045 27.35,-7.723 37.002,0 75.293,-9.653 74.005,-50.517 -0.964,-35.073 -40.864,-49.23 -80.762,-49.23 -39.255,0 -77.868,15.767 -78.19,55.665 h 55.024 c 0,-19.628 48.263,-18.662 47.941,-4.182 0,7.721 -13.513,8.687 -30.245,9.974 -30.246,2.573 -71.754,5.469 -70.788,45.368 0,40.543 44.081,53.092 76.258,53.092 32.821,0 75.936,-8.366 75.936,-53.413 z" /></g><g
           transform="translate(1287.5155,236.6532)"
           id="g903"><path
             id="path905"
             style="fill:#ffffff;fill-opacity:1;fill-rule:nonzero;stroke:none"
             d="m 0,0 v 42.475 h 24.361 v 28.071 h -7.925 l -0.069,19.077 h 37.744 l -0.073,15.816 H 77.769 V 42.475 h 33.514 V 27.166 h -8.949 L 102.297,0 H 77.769 v -43.101 c -0.625,-24.048 26.545,-21.237 41.225,-13.429 l 15.304,-39.04 c -16.239,-10.619 -32.168,-13.119 -43.1,-13.119 -43.412,0.312 -66.837,23.113 -66.837,65.588 v 24.896 l 31.222,-0.055 v 11.973 l -31.222,0.11 V 0 Z" /></g><g
           transform="translate(1510.7391,172.8554)"
           id="g907"><path
             id="path909"
             style="fill:#ffffff;fill-opacity:1;fill-rule:nonzero;stroke:none"
             d="M 0,0 C -21.88,0 -21.88,21.559 -0.965,21.559 H 27.352 C 27.352,7.401 12.551,0 0,0 m 83.616,-6.669 -0.277,4.096 v 59.526 c 0,67.893 -108.758,75.937 -146.405,33.463 l 25.097,-29.924 c 22.525,18.019 62.423,18.663 64.032,-1.93 H -0.965 c -32.819,0 -71.431,-9.654 -71.431,-48.265 0,-39.255 33.142,-53.093 63.387,-53.093 18.662,-0.321 36.038,5.792 45.047,20.593 l 0.12,-3.063 V -41.708 H 138.33 v 35.039 z" /></g><g
           transform="translate(1114.7841,350.4452)"
           id="g911"><path
             id="path913"
             style="fill:#ffffff;fill-opacity:1;fill-rule:nonzero;stroke:none"
             d="M 0,0 V 13.857 H -15.508 V 6.782 h -55.065 v -19.296 h -17.769 v -22.517 h 17.769 v -183.101 h 55.344 v 151.793 h -14.092 v 10.502 l 19.464,0.109 v 24.378 h -5.372 V 0 Z" /></g><g
           transform="translate(815.7285,345.2284)"
           id="g915"><path
             id="path917"
             style="fill:#ffffff;fill-opacity:1;fill-rule:nonzero;stroke:none"
             d="M 0,0 V -58.656 H -35.992 V -212.915 H 19.03 V -77.192 H 6.786 V -66.59 H 19.03 v 7.866 H 55.022 V 0 Z" /></g><g
           transform="translate(776.7363,342.8905)"
           id="g919"><path
             id="path921"
             style="fill:#ffffff;fill-opacity:1;fill-rule:nonzero;stroke:none"
             d="m 0,0 h -61.575 l -47.83,-102.595 h 18.272 l -22.905,-49.992 -23.71,51.598 -18.32,-0.052 L -203.173,0 h -62.828 l 51.855,-102.595 h 18.646 l 58.939,-112.093 h 44.726 l 59.671,114.203 -18.601,0.045 z" /></g></g></g></g></svg>
